<svg xmlns="http://www.w3.org/2000/svg" width="1100" height="520" viewBox="0 0 1100 520">
  <defs>
    <linearGradient id="bg" x1="0" y1="0" x2="1" y2="1">
      <stop offset="0" stop-color="#eff6ff"/>
      <stop offset="1" stop-color="#dbeafe"/>
    </linearGradient>
    <linearGradient id="panel" x1="0" y1="0" x2="1" y2="1">
      <stop offset="0" stop-color="#3b82f6"/>
      <stop offset="1" stop-color="#1e40af"/>
    </linearGradient>
  </defs>

  <rect width="1100" height="520" fill="url(#bg)"/>
  <circle cx="930" cy="95" r="125" fill="#bfdbfe" opacity="0.55"/>
  <circle cx="150" cy="430" r="150" fill="#bae6fd" opacity="0.35"/>

  <rect x="135" y="95" width="500" height="315" rx="24" fill="#ffffff" opacity="0.96"/>
  <rect x="165" y="135" width="440" height="54" rx="14" fill="url(#panel)"/>
  <rect x="165" y="218" width="128" height="92" rx="14" fill="#dbeafe"/>
  <rect x="322" y="218" width="128" height="92" rx="14" fill="#bfdbfe"/>
  <rect x="477" y="218" width="128" height="92" rx="14" fill="#dbeafe"/>
  <path d="M190 160h160" stroke="#ffffff" stroke-width="11" stroke-linecap="round"/>
  <path d="M190 258h70" stroke="#2563eb" stroke-width="10" stroke-linecap="round"/>
  <path d="M347 258h70" stroke="#1e40af" stroke-width="10" stroke-linecap="round"/>
  <path d="M502 258h70" stroke="#2563eb" stroke-width="10" stroke-linecap="round"/>
  <path d="M165 350h360" stroke="#cbd5e1" stroke-width="12" stroke-linecap="round"/>
  <path d="M165 382h270" stroke="#cbd5e1" stroke-width="12" stroke-linecap="round"/>

  <g opacity="0.98">
    <circle cx="790" cy="210" r="46" fill="#f1c7a4"/>
    <path d="M742 204c6-63 94-66 108-4-41-24-72-23-108 4z" fill="#334155"/>
    <path d="M715 332c25-86 128-86 154 0l30 100H686z" fill="#1d4ed8"/>
    <rect x="666" y="336" width="254" height="72" rx="16" fill="#111827"/>
    <rect x="694" y="354" width="198" height="36" rx="8" fill="#e0f2fe"/>
  </g>

  <g opacity="0.9">
    <rect x="805" y="85" width="135" height="94" rx="16" fill="#ffffff"/>
    <path d="M832 120h70" stroke="#3b82f6" stroke-width="9" stroke-linecap="round"/>
    <path d="M832 150h84" stroke="#94a3b8" stroke-width="8" stroke-linecap="round"/>
  </g>
</svg>
