<svg xmlns="http://www.w3.org/2000/svg" width="1400" height="780" viewBox="0 0 1400 780">
  <defs>
    <linearGradient id="bg" x1="0" y1="0" x2="1" y2="1">
      <stop offset="0" stop-color="#eff6ff"/>
      <stop offset="0.55" stop-color="#f8fafc"/>
      <stop offset="1" stop-color="#dbeafe"/>
    </linearGradient>
    <linearGradient id="screen" x1="0" y1="0" x2="1" y2="1">
      <stop offset="0" stop-color="#3b82f6"/>
      <stop offset="1" stop-color="#1e3a8a"/>
    </linearGradient>
  </defs>

  <rect width="1400" height="780" fill="url(#bg)"/>
  <circle cx="1120" cy="120" r="190" fill="#bfdbfe" opacity="0.55"/>
  <circle cx="190" cy="140" r="150" fill="#bae6fd" opacity="0.45"/>
  <circle cx="1180" cy="650" r="120" fill="#c7d2fe" opacity="0.35"/>

  <rect x="250" y="520" width="900" height="56" rx="16" fill="#1f2937"/>
  <rect x="310" y="270" width="410" height="250" rx="22" fill="#111827"/>
  <rect x="335" y="295" width="360" height="190" rx="14" fill="url(#screen)"/>
  <path d="M375 345h220" stroke="#bfdbfe" stroke-width="10" stroke-linecap="round"/>
  <path d="M375 388h270" stroke="#67e8f9" stroke-width="10" stroke-linecap="round"/>
  <path d="M375 432h170" stroke="#dbeafe" stroke-width="10" stroke-linecap="round"/>
  <rect x="470" y="520" width="94" height="26" rx="6" fill="#475569"/>
  <rect x="415" y="548" width="205" height="20" rx="10" fill="#64748b"/>

  <g opacity="0.98">
    <circle cx="845" cy="350" r="48" fill="#f1c7a4"/>
    <path d="M792 346c8-68 103-72 118-5-45-28-78-27-118 5z" fill="#334155"/>
    <path d="M770 460c22-78 123-79 151 0l24 80H745z" fill="#2563eb"/>
    <rect x="735" y="465" width="230" height="95" rx="14" fill="#0f172a"/>
    <rect x="758" y="485" width="184" height="55" rx="9" fill="#e0f2fe"/>
  </g>

  <g opacity="0.92">
    <rect x="170" y="230" width="170" height="115" rx="14" fill="#ffffff"/>
    <path d="M200 265h92" stroke="#3b82f6" stroke-width="9" stroke-linecap="round"/>
    <path d="M200 300h112" stroke="#94a3b8" stroke-width="8" stroke-linecap="round"/>
    <rect x="1030" y="250" width="170" height="120" rx="14" fill="#ffffff"/>
    <path d="M1062 288h88" stroke="#0f766e" stroke-width="9" stroke-linecap="round"/>
    <path d="M1062 326h108" stroke="#94a3b8" stroke-width="8" stroke-linecap="round"/>
  </g>
</svg>
