<svg xmlns="http://www.w3.org/2000/svg" width="1200" height="520" viewBox="0 0 1200 520">
  <defs>
    <linearGradient id="wall" x1="0" y1="0" x2="1" y2="1">
      <stop offset="0" stop-color="#dbeafe"/>
      <stop offset="0.55" stop-color="#e0f2fe"/>
      <stop offset="1" stop-color="#f8fafc"/>
    </linearGradient>
    <linearGradient id="screen" x1="0" y1="0" x2="1" y2="1">
      <stop offset="0" stop-color="#1d4ed8"/>
      <stop offset="1" stop-color="#0f172a"/>
    </linearGradient>
    <linearGradient id="desk" x1="0" y1="0" x2="1" y2="0">
      <stop offset="0" stop-color="#334155"/>
      <stop offset="1" stop-color="#475569"/>
    </linearGradient>
  </defs>

  <rect width="1200" height="520" fill="url(#wall)"/>
  <circle cx="1020" cy="100" r="150" fill="#bfdbfe" opacity="0.45"/>
  <circle cx="180" cy="80" r="120" fill="#bae6fd" opacity="0.55"/>

  <rect x="120" y="370" width="960" height="48" rx="12" fill="url(#desk)"/>
  <rect x="80" y="415" width="1040" height="40" rx="10" fill="#1f2937"/>

  <g opacity="0.98">
    <rect x="430" y="135" width="330" height="215" rx="18" fill="#111827"/>
    <rect x="450" y="155" width="290" height="162" rx="10" fill="url(#screen)"/>
    <rect x="552" y="350" width="84" height="22" rx="4" fill="#334155"/>
    <rect x="505" y="372" width="180" height="18" rx="8" fill="#64748b"/>
    <path d="M485 190h210" stroke="#93c5fd" stroke-width="8" stroke-linecap="round"/>
    <path d="M485 225h160" stroke="#67e8f9" stroke-width="8" stroke-linecap="round"/>
    <path d="M485 260h205" stroke="#bfdbfe" stroke-width="8" stroke-linecap="round"/>
  </g>

  <g>
    <circle cx="310" cy="205" r="42" fill="#f2c7a5"/>
    <path d="M258 206c4-58 93-64 106-8-36-28-68-27-106 8z" fill="#334155"/>
    <path d="M250 295c18-60 101-62 126 0l20 75H228z" fill="#2563eb"/>
    <rect x="210" y="300" width="185" height="95" rx="12" fill="#1e293b"/>
    <rect x="226" y="316" width="153" height="60" rx="7" fill="#dbeafe"/>
    <path d="M180 378h245" stroke="#0f172a" stroke-width="12" stroke-linecap="round"/>
  </g>

  <g>
    <circle cx="850" cy="205" r="40" fill="#d8a27c"/>
    <path d="M810 198c12-52 83-52 92 2-36-16-62-16-92-2z" fill="#0f172a"/>
    <path d="M790 300c20-64 105-62 124 0l24 76H766z" fill="#0f766e"/>
    <rect x="760" y="306" width="188" height="94" rx="12" fill="#111827"/>
    <rect x="778" y="323" width="152" height="58" rx="7" fill="#e0f2fe"/>
    <path d="M732 384h246" stroke="#0f172a" stroke-width="12" stroke-linecap="round"/>
  </g>

  <g opacity="0.92">
    <rect x="155" y="130" width="145" height="90" rx="10" fill="#ffffff"/>
    <path d="M178 158h82" stroke="#2563eb" stroke-width="8" stroke-linecap="round"/>
    <path d="M178 185h96" stroke="#94a3b8" stroke-width="7" stroke-linecap="round"/>
    <rect x="890" y="120" width="140" height="96" rx="10" fill="#ffffff"/>
    <path d="M914 151h72" stroke="#0f766e" stroke-width="8" stroke-linecap="round"/>
    <path d="M914 180h90" stroke="#94a3b8" stroke-width="7" stroke-linecap="round"/>
  </g>
</svg>
